<svg width="509" height="101" viewBox="0 0 509 101" xmlns="http://www.w3.org/2000/svg"><title>Untitled copy</title><g fill="none" fill-rule="evenodd"><path d="M133.364 41.72c-2.307 0-4.508.446-6.543 1.325a17.143 17.143 0 0 0-5.345 3.605c-1.512 1.512-2.725 3.324-3.604 5.387a16.682 16.682 0 0 0-1.324 6.585c0 2.31.445 4.51 1.324 6.541a17.072 17.072 0 0 0 3.604 5.346 17.113 17.113 0 0 0 5.345 3.605c2.031.879 4.232 1.324 6.543 1.324 2.31 0 4.51-.445 6.541-1.324a17.129 17.129 0 0 0 5.346-3.605c1.512-1.51 2.724-3.31 3.605-5.346.879-2.033 1.324-4.234 1.324-6.54a16.68 16.68 0 0 0-1.325-6.586c-.88-2.063-2.092-3.875-3.604-5.387a17.174 17.174 0 0 0-5.346-3.605c-2.034-.879-4.236-1.324-6.54-1.324m0 40.3c-3.13 0-6.158-.607-9.002-1.8a23.437 23.437 0 0 1-7.542-5.058 23.169 23.169 0 0 1-5.098-7.628 23.362 23.362 0 0 1-1.758-8.913c0-3.127.591-6.155 1.758-8.999a23.162 23.162 0 0 1 5.098-7.628 23.461 23.461 0 0 1 7.543-5.056 23.113 23.113 0 0 1 9-1.8c3.127 0 6.155.606 9 1.8a23.47 23.47 0 0 1 7.541 5.056 23.209 23.209 0 0 1 5.106 7.628 23.646 23.646 0 0 1 1.762 9v22.916a.499.499 0 0 1-.5.5h-5.684a.498.498 0 0 1-.498-.5v-5.762a.499.499 0 0 0-.872-.33c-.72.812-1.458 1.532-2.263 2.152-1.367 1.055-2.803 1.922-4.315 2.578a21.163 21.163 0 0 1-4.668 1.416 26.316 26.316 0 0 1-4.609.428m54.408-40.301c-2.306 0-4.508.446-6.542 1.325a17.143 17.143 0 0 0-5.346 3.605c-1.512 1.512-2.725 3.324-3.604 5.387a16.682 16.682 0 0 0-1.324 6.585c0 2.31.446 4.51 1.324 6.541a17.072 17.072 0 0 0 3.604 5.346 17.113 17.113 0 0 0 5.346 3.605c2.03.879 4.232 1.324 6.542 1.324 2.31 0 4.51-.445 6.542-1.324a17.129 17.129 0 0 0 5.345-3.605c1.512-1.51 2.724-3.31 3.605-5.346.879-2.033 1.324-4.234 1.324-6.54a16.68 16.68 0 0 0-1.325-6.586c-.88-2.063-2.092-3.875-3.604-5.387a17.174 17.174 0 0 0-5.345-3.605c-2.035-.879-4.236-1.324-6.542-1.324m0 58.126a23.3 23.3 0 0 1-8.956-1.758c-5.737-2.71-9.35-7.088-10.385-8.455a.505.505 0 0 1 .115-.719l4.537-3.184a.506.506 0 0 1 .7.115c.713.976 2.752 3.513 5.872 5.39 2.395 1.385 5.147 2.029 8.117 2.029 2.307 0 4.507-.446 6.542-1.324 2.034-.882 3.833-2.094 5.345-3.606 1.512-1.512 2.708-3.31 3.588-5.345.879-2.035 1.307-4.236 1.307-6.543V76a.506.506 0 0 0-.852-.368c-2.128 1.972-4.492 3.483-6.86 4.503a22.781 22.781 0 0 1-9.078 1.887 23.12 23.12 0 0 1-8.997-1.8 23.397 23.397 0 0 1-7.539-5.058 23.169 23.169 0 0 1-5.098-7.628 23.386 23.386 0 0 1-1.756-8.913c0-3.127.59-6.155 1.757-8.999a23.162 23.162 0 0 1 5.099-7.628 23.461 23.461 0 0 1 7.542-5.056 23.113 23.113 0 0 1 9-1.8c1.536 0 3.15.172 4.799.514 1.643.34 3.255.83 4.79 1.453 1.54.628 3 1.452 4.34 2.45.849.633 1.63 1.303 2.337 2.035.289.3.793.151.865-.258l.68-5.659a.508.508 0 0 1 .499-.419h4.648c.28 0 .506.228.506.508v40.684c0 3.124-.624 6.152-1.79 9a22.38 22.38 0 0 1-5.118 7.546 22.343 22.343 0 0 1-7.55 5.097 23.665 23.665 0 0 1-9.006 1.757M228.83 28.22c-1.1 0-2.033-.373-2.77-1.112-.737-.737-1.112-1.67-1.112-2.77 0-1.098.372-2.042 1.107-2.809.738-.769 1.673-1.158 2.776-1.158 1.1 0 2.045.388 2.813 1.153.765.768 1.153 1.715 1.153 2.813 0 1.103-.39 2.038-1.158 2.776-.767.735-1.711 1.107-2.808 1.107m-3.227 53.31V35.765a.51.51 0 0 1 .51-.508h5.665c.28 0 .508.228.508.508v45.767c0 .28-.227.508-.508.508h-5.666a.509.509 0 0 1-.51-.508m22.722.008V20.888a.5.5 0 0 1 .499-.499h5.685c.276 0 .499.223.499.499V81.54a.498.498 0 0 1-.499.499h-5.685a.499.499 0 0 1-.499-.5m56.047-29.073c.368 0 .61-.381.457-.716a17.745 17.745 0 0 0-5.613-6.923c-2.83-2.086-6.104-3.125-9.73-3.125-1.81 0-3.566.288-5.217.837a16.948 16.948 0 0 0-4.556 2.324 17.057 17.057 0 0 0-3.646 3.528c-.784 1.031-1.45 2.223-1.988 3.359a.502.502 0 0 0 .454.716h29.839zm-14.885 29.555c-3.128 0-6.156-.606-9-1.8a23.408 23.408 0 0 1-7.542-5.058c-2.22-2.218-3.934-4.77-5.1-7.585-1.165-2.815-1.757-5.828-1.757-8.956 0-3.127.592-6.155 1.757-8.997a22.284 22.284 0 0 1 5.103-7.548 22.778 22.778 0 0 1 7.539-5.138 23.112 23.112 0 0 1 9-1.8c3.128 0 6.142.606 8.96 1.8 2.813 1.194 5.365 2.924 7.582 5.14 2.216 2.16 3.896 4.73 5.064 7.632 1.166 2.9 1.72 5.956 1.72 9.079v.359h-39.617a.505.505 0 0 0-.501.537c.105 1.861.554 3.875 1.34 5.61a17.326 17.326 0 0 0 3.646 5.26 17.615 17.615 0 0 0 5.308 3.562c2.003.877 4.188 1.321 6.498 1.321 3.133 0 6.03-.794 8.613-2.36 2.584-1.566 4.619-3.748 6.048-6.33l.096-.25h7.279l-.182.534a23.811 23.811 0 0 1-5.312 8.093c-2.217 2.161-4.768 3.88-7.582 5.075a22.832 22.832 0 0 1-8.96 1.82zm52.887-40.301c-2.307 0-4.508.446-6.543 1.325a17.143 17.143 0 0 0-5.345 3.605 17.102 17.102 0 0 0-3.604 5.345c-.879 2.032-1.324 4.234-1.324 6.542 0 2.31.445 4.526 1.324 6.586.88 2.063 2.093 3.875 3.604 5.386a17.113 17.113 0 0 0 5.345 3.605c2.031.879 4.232 1.324 6.543 1.324 2.31 0 4.51-.445 6.541-1.324a17.129 17.129 0 0 0 5.346-3.605c1.51-1.51 2.724-3.323 3.604-5.386a16.69 16.69 0 0 0 1.325-6.586c0-2.306-.445-4.507-1.324-6.542-.881-2.034-2.093-3.833-3.605-5.345a17.174 17.174 0 0 0-5.346-3.605c-2.034-.879-4.236-1.324-6.541-1.324m0 40.3a23.14 23.14 0 0 1-9.001-1.8 23.437 23.437 0 0 1-7.542-5.058 23.169 23.169 0 0 1-5.098-7.628 23.576 23.576 0 0 1-1.758-8.998c0-3.07.591-6.07 1.758-8.914a23.162 23.162 0 0 1 5.098-7.628 23.461 23.461 0 0 1 7.543-5.056 23.113 23.113 0 0 1 9-1.8c3.127 0 6.155.606 9 1.8 2.137.898 5.519 3.414 7.064 4.643.33.264.82.03.82-.395V20.89a.5.5 0 0 1 .5-.501h5.347a.5.5 0 0 1 .501.501v37.647c0 3.125-.508 6.153-1.673 8.998a23.082 23.082 0 0 1-5.059 7.628 23.36 23.36 0 0 1-7.52 5.058 23.048 23.048 0 0 1-8.98 1.8m32.922-.487V35.761c0-.279.225-.505.504-.505h4.552c.219 0 .412.14.479.349l1.02 3.145a.502.502 0 0 0 .78.247 19.657 19.657 0 0 1 4.992-2.779c2.17-.828 4.485-1.238 6.877-1.238.797 0 1.564.048 2.279.133.694.084 1.486.187 2.228.3l.346.045v6.907l-.494-.133a14.837 14.837 0 0 0-4.327-.66c-1.75 0-3.427.33-4.953.986a12.817 12.817 0 0 0-4.043 2.716c-1.147 1.147-1.987 2.506-2.644 4.036-.655 1.528-.913 3.19-.913 4.938v27.286a.504.504 0 0 1-.504.504H375.8a.504.504 0 0 1-.504-.504m51.9-39.814c-2.307 0-4.508.446-6.543 1.325a17.143 17.143 0 0 0-5.345 3.605c-1.512 1.512-2.726 3.324-3.604 5.387a16.682 16.682 0 0 0-1.324 6.585c0 2.31.445 4.51 1.324 6.541a17.072 17.072 0 0 0 3.604 5.346 17.113 17.113 0 0 0 5.345 3.605c2.03.879 4.232 1.324 6.543 1.324 2.31 0 4.51-.445 6.541-1.324a17.63 17.63 0 0 0 5.39-3.607 16.8 16.8 0 0 0 3.645-5.344c.878-2.033 1.325-4.234 1.325-6.54 0-2.308-.447-4.524-1.325-6.586-.88-2.06-2.106-3.872-3.644-5.386a17.678 17.678 0 0 0-5.39-3.606c-2.036-.879-4.237-1.324-6.542-1.324m0 40.3c-3.13 0-6.143-.607-8.959-1.802a24.525 24.525 0 0 1-7.58-5.053 24.413 24.413 0 0 1-5.06-7.63 22.893 22.893 0 0 1-1.8-8.914c0-3.128.605-6.156 1.8-9a24.44 24.44 0 0 1 5.053-7.624 24.618 24.618 0 0 1 7.587-5.059 22.81 22.81 0 0 1 8.959-1.8c3.126 0 6.154.606 9 1.8a24.455 24.455 0 0 1 7.624 5.054 24.442 24.442 0 0 1 5.058 7.628 23.123 23.123 0 0 1 1.8 9.001c0 3.072-.605 6.072-1.8 8.916a24.441 24.441 0 0 1-5.053 7.623 24.452 24.452 0 0 1-7.63 5.06 23.14 23.14 0 0 1-9 1.8m56.352-40.301c-2.307 0-4.508.446-6.543 1.325a17.143 17.143 0 0 0-5.345 3.605c-1.512 1.512-2.726 3.324-3.604 5.387a16.682 16.682 0 0 0-1.324 6.585c0 2.31.445 4.51 1.324 6.541a17.072 17.072 0 0 0 3.604 5.346 17.113 17.113 0 0 0 5.345 3.605c2.03.879 4.232 1.324 6.543 1.324 2.309 0 4.509-.445 6.541-1.324a17.129 17.129 0 0 0 5.345-3.605c1.512-1.51 2.724-3.31 3.606-5.346.878-2.033 1.324-4.234 1.324-6.54a16.68 16.68 0 0 0-1.326-6.586c-.88-2.063-2.092-3.875-3.604-5.387a17.174 17.174 0 0 0-5.345-3.605c-2.035-.879-4.236-1.324-6.541-1.324zM460.66 98.243a.494.494 0 0 1-.495-.495V58.622c0-3.127.583-6.155 1.748-8.999a23.175 23.175 0 0 1 5.096-7.628 23.43 23.43 0 0 1 7.539-5.056 23.113 23.113 0 0 1 9-1.8c3.127 0 6.153.606 8.999 1.8a23.476 23.476 0 0 1 7.542 5.056 23.21 23.21 0 0 1 5.099 7.628 23.641 23.641 0 0 1 1.757 9 23.41 23.41 0 0 1-1.757 8.912 23.2 23.2 0 0 1-5.1 7.628 23.437 23.437 0 0 1-7.541 5.058 23.14 23.14 0 0 1-9 1.8c-3.13 0-6.158-.607-9.002-1.8-3.278-1.507-5.685-3.42-6.87-4.499a.494.494 0 0 0-.827.367v21.658a.494.494 0 0 1-.495.495h-5.693z" fill="#2E2D2D"/><path d="M79.075 82.429a.63.63 0 0 0-.514.266 43.436 43.436 0 0 1-5.016 5.934c-2.626 2.58-5.528 4.836-8.669 6.682-.555.326-.325 1.174.319 1.174h22.062a.632.632 0 0 0 .631-.632V83.06a.631.631 0 0 0-.63-.632h-8.183zm2.628-24.089c0-8.912-5.02-20.116-16.554-34.255-7.97-9.77-15.834-17.261-16.164-17.576l-4.406-4.182a.63.63 0 0 0-.869 0l-4.404 4.182c-.33.315-8.195 7.807-16.165 17.576C11.607 38.224 6.053 50.604 6.053 59.515c0 6.005 1.404 12.616 3.897 17.87.104.22.328.359.572.359h15.243a.63.63 0 0 0 .476-1.043c-3.836-4.414-6.132-10.997-6.132-17.185 0-2.468 1.326-10.457 13.86-25.848 3.478-4.27 6.977-8.39 9.73-11.313a.63.63 0 0 1 .916-.004c2.755 2.88 6.26 6.605 9.739 10.877 12.533 15.39 13.89 22.717 13.89 25.185 0 13.218-12.045 23.963-25.078 24.054l-41.481-.035a.63.63 0 0 0-.63.63v12.791c0 .35.28.632.628.632l41.484-.001c20.839-.105 38.536-17.176 38.536-38.144" fill="#EF3720"/></g></svg>